<svg xmlns="http://www.w3.org/2000/svg" width="1162.5" viewBox="0 0 1162.5 165" height="165" version="1.0"><defs><clipPath id="a"><path d="M 3.253906 0 L 1158.75 0 L 1158.75 164.007812 L 3.253906 164.007812 Z M 3.253906 0"/></clipPath></defs><g clip-path="url(#a)"><path fill="#FFF" d="M 3.253906 0 L 1159.246094 0 L 1159.246094 171.535156 L 3.253906 171.535156 Z M 3.253906 0"/><path fill="#FFF" d="M 3.253906 0 L 1159.246094 0 L 1159.246094 164.078125 L 3.253906 164.078125 Z M 3.253906 0"/><path fill="#FFE4DE" d="M 3.253906 0 L 1159.246094 0 L 1159.246094 164.078125 L 3.253906 164.078125 Z M 3.253906 0"/></g><g><g><g><path d="M 3.984375 0 L 3.984375 -29.328125 L 12.359375 -29.328125 C 15.835938 -29.328125 18.984375 -28.585938 21.796875 -27.109375 C 23.296875 -26.335938 24.609375 -25.375 25.734375 -24.21875 C 26.859375 -23.070312 27.757812 -21.601562 28.4375 -19.8125 C 29.113281 -18.03125 29.453125 -16.046875 29.453125 -13.859375 C 29.453125 -10.734375 28.671875 -8.09375 27.109375 -5.9375 C 24.242188 -1.976562 19.609375 0 13.203125 0 Z M 12.3125 -1.5 C 16.0625 -1.5 19.070312 -2.609375 21.34375 -4.828125 C 23.625 -7.046875 24.765625 -10.296875 24.765625 -14.578125 C 24.765625 -17.878906 23.863281 -20.703125 22.0625 -23.046875 C 20.257812 -25.398438 17.925781 -26.960938 15.0625 -27.734375 C 12.488281 -27.734375 10.242188 -27.421875 8.328125 -26.796875 L 8.328125 -1.90625 C 9.273438 -1.632812 10.601562 -1.5 12.3125 -1.5 Z M 12.3125 -1.5" transform="translate(449.496 87.538)"/></g></g></g><g><g><g><path d="M 3.984375 0 L 3.984375 -29.328125 L 21.75 -29.328125 L 21.3125 -26.359375 L 13.0625 -27.734375 C 11.613281 -27.734375 10.019531 -27.484375 8.28125 -26.984375 L 8.28125 -16.21875 L 18.125 -16.21875 L 18.125 -14.53125 L 8.28125 -14.53125 L 8.28125 -1.59375 L 22.015625 -2.96875 L 21.578125 0 Z M 3.984375 0" transform="translate(481.733 87.538)"/></g></g></g><g><g><g><path d="M 7.171875 -24.234375 C 7.171875 -22.929688 7.679688 -21.722656 8.703125 -20.609375 C 9.722656 -19.503906 10.960938 -18.53125 12.421875 -17.6875 C 13.890625 -16.851562 15.34375 -16 16.78125 -15.125 C 18.226562 -14.257812 19.460938 -13.191406 20.484375 -11.921875 C 21.503906 -10.648438 22.015625 -9.242188 22.015625 -7.703125 C 22.015625 -5.285156 21.117188 -3.304688 19.328125 -1.765625 C 17.546875 -0.234375 15.132812 0.53125 12.09375 0.53125 C 9.050781 0.53125 6.039062 -0.046875 3.0625 -1.203125 L 3.0625 -3.28125 C 6.070312 -1.769531 8.628906 -1.015625 10.734375 -1.015625 C 12.847656 -1.015625 14.492188 -1.53125 15.671875 -2.5625 C 16.859375 -3.601562 17.453125 -5.035156 17.453125 -6.859375 C 17.453125 -8.097656 16.960938 -9.226562 15.984375 -10.25 C 15.015625 -11.269531 13.832031 -12.15625 12.4375 -12.90625 C 11.050781 -13.664062 9.664062 -14.441406 8.28125 -15.234375 C 6.894531 -16.035156 5.710938 -17.046875 4.734375 -18.265625 C 3.765625 -19.492188 3.28125 -20.976562 3.28125 -22.71875 C 3.28125 -24.46875 4.050781 -26.09375 5.59375 -27.59375 C 7.144531 -29.101562 9.457031 -29.859375 12.53125 -29.859375 C 14.539062 -29.859375 17.082031 -29.398438 20.15625 -28.484375 L 19.71875 -25.46875 C 15.726562 -27.1875 12.316406 -28.046875 9.484375 -28.046875 C 7.941406 -27.304688 7.171875 -26.035156 7.171875 -24.234375 Z M 7.171875 -24.234375" transform="translate(507.506 87.538)"/></g></g></g><g><g><g><path d="M 17.5 0.53125 C 12.914062 0.53125 9.054688 -0.707031 5.921875 -3.1875 C 2.796875 -5.664062 1.234375 -9.222656 1.234375 -13.859375 C 1.234375 -16.578125 1.75 -19 2.78125 -21.125 C 3.820312 -23.25 5.179688 -24.921875 6.859375 -26.140625 C 10.253906 -28.617188 14.066406 -29.859375 18.296875 -29.859375 C 20.742188 -29.859375 23.296875 -29.414062 25.953125 -28.53125 L 25.515625 -25.515625 C 24.128906 -26.109375 23.050781 -26.550781 22.28125 -26.84375 C 20.0625 -27.644531 17.832031 -28.046875 15.59375 -28.046875 C 12.488281 -27.335938 10.101562 -25.800781 8.4375 -23.4375 C 6.769531 -21.070312 5.9375 -18.117188 5.9375 -14.578125 C 5.9375 -10.234375 7.070312 -6.882812 9.34375 -4.53125 C 11.613281 -2.1875 14.609375 -1.015625 18.328125 -1.015625 C 22.054688 -1.015625 24.835938 -1.8125 26.671875 -3.40625 L 26.671875 -0.96875 C 24.128906 0.03125 21.070312 0.53125 17.5 0.53125 Z M 17.5 0.53125" transform="translate(533.013 87.538)"/></g></g></g><g><g><g><path d="M 8.328125 -14 L 8.328125 0 L 3.984375 0 L 3.984375 -29.328125 L 13.5625 -29.328125 C 16.539062 -29.328125 18.984375 -28.660156 20.890625 -27.328125 C 22.796875 -26.003906 23.75 -24.253906 23.75 -22.078125 C 23.75 -19.910156 22.988281 -18.195312 21.46875 -16.9375 C 19.945312 -15.6875 17.882812 -14.828125 15.28125 -14.359375 L 27.15625 0 L 22.015625 0.625 L 11.734375 -14 Z M 8.328125 -15.328125 L 11.15625 -15.328125 C 16.476562 -15.328125 19.140625 -17.421875 19.140625 -21.609375 C 19.140625 -22.328125 18.960938 -23.128906 18.609375 -24.015625 C 17.921875 -25.867188 16.472656 -27.09375 14.265625 -27.6875 C 12.253906 -27.6875 10.273438 -27.4375 8.328125 -26.9375 Z M 8.328125 -15.328125" transform="translate(561.885 87.538)"/></g></g></g><g><g><g><path d="M 8.0625 -29.328125 L 8.0625 0 L 3.984375 0 L 3.984375 -29.328125 Z M 8.0625 -29.328125" transform="translate(591.023 87.538)"/></g></g></g><g><g><g><path d="M 23.703125 -21.703125 C 23.703125 -18.867188 22.660156 -16.71875 20.578125 -15.25 C 18.492188 -13.789062 15.664062 -13.0625 12.09375 -13.0625 L 8.28125 -13.0625 L 8.28125 0 L 3.984375 0 L 3.984375 -29.328125 L 13.515625 -29.328125 C 16.492188 -29.328125 18.9375 -28.644531 20.84375 -27.28125 C 22.75 -25.925781 23.703125 -24.066406 23.703125 -21.703125 Z M 8.28125 -14.359375 L 12.21875 -14.359375 C 13.613281 -14.359375 14.804688 -14.625 15.796875 -15.15625 C 16.785156 -15.6875 17.5 -16.363281 17.9375 -17.1875 C 18.738281 -18.664062 19.140625 -20.097656 19.140625 -21.484375 C 19.140625 -22.160156 18.960938 -22.972656 18.609375 -23.921875 C 17.898438 -25.867188 16.4375 -27.140625 14.21875 -27.734375 C 12.09375 -27.734375 10.113281 -27.484375 8.28125 -26.984375 Z M 8.28125 -14.359375" transform="translate(603.954 87.538)"/></g></g></g><g><g><g><path d="M 14 0 L 9.703125 0 L 9.703125 -27.203125 C 8.691406 -27.429688 7.6875 -27.546875 6.6875 -27.546875 L 0.703125 -26.171875 L 0.4375 -29.328125 L 23.25 -29.328125 L 23.03125 -26.171875 L 17.015625 -27.546875 C 16.003906 -27.546875 15 -27.429688 14 -27.203125 Z M 14 0" transform="translate(629.018 87.538)"/></g></g></g><g><g><g><path d="M 8.0625 -29.328125 L 8.0625 0 L 3.984375 0 L 3.984375 -29.328125 Z M 8.0625 -29.328125" transform="translate(653.595 87.538)"/></g></g></g><g><g><g><path d="M 17.3125 -29.859375 C 21.15625 -29.859375 24.332031 -28.59375 26.84375 -26.0625 C 29.351562 -23.539062 30.609375 -20.035156 30.609375 -15.546875 C 30.609375 -12.648438 30.101562 -10.117188 29.09375 -7.953125 C 28.09375 -5.785156 26.78125 -4.109375 25.15625 -2.921875 C 22 -0.617188 18.515625 0.53125 14.703125 0.53125 C 10.898438 0.53125 7.75 -0.742188 5.25 -3.296875 C 2.75 -5.847656 1.5 -9.367188 1.5 -13.859375 C 1.5 -16.191406 1.832031 -18.296875 2.5 -20.171875 C 3.164062 -22.046875 4.035156 -23.570312 5.109375 -24.75 C 6.191406 -25.9375 7.441406 -26.929688 8.859375 -27.734375 C 11.453125 -29.148438 14.269531 -29.859375 17.3125 -29.859375 Z M 8.421875 -5.046875 C 9.179688 -3.742188 10.210938 -2.734375 11.515625 -2.015625 C 12.816406 -1.296875 14.316406 -0.9375 16.015625 -0.9375 C 17.710938 -0.9375 19.222656 -1.363281 20.546875 -2.21875 C 21.878906 -3.070312 22.914062 -4.191406 23.65625 -5.578125 C 25.15625 -8.359375 25.90625 -11.34375 25.90625 -14.53125 C 25.90625 -18.457031 25.125 -21.617188 23.5625 -24.015625 C 21.820312 -26.703125 18.941406 -28.046875 14.921875 -28.046875 C 12.054688 -27.035156 9.882812 -25.304688 8.40625 -22.859375 C 6.9375 -20.410156 6.203125 -17.632812 6.203125 -14.53125 C 6.203125 -10.75 6.941406 -7.585938 8.421875 -5.046875 Z M 8.421875 -5.046875" transform="translate(666.525 87.538)"/></g></g></g><g><g><g><path d="M 26.265625 0.484375 L 25.515625 0.484375 L 6.109375 -23.78125 L 5.9375 -23.78125 L 5.9375 0 L 3.984375 0 L 3.984375 -29.328125 L 7.265625 -29.328125 L 24.140625 -8.015625 L 24.3125 -8.015625 L 24.3125 -29.328125 L 26.265625 -29.328125 Z M 26.265625 0.484375" transform="translate(699.516 87.538)"/></g></g></g></svg>