<svg xmlns="http://www.w3.org/2000/svg" width="1162.5" viewBox="0 0 1162.5 165" height="165" version="1.0"><defs><clipPath id="a"><path d="M 3.253906 0 L 1158.75 0 L 1158.75 164.007812 L 3.253906 164.007812 Z M 3.253906 0"/></clipPath></defs><g clip-path="url(#a)"><path fill="#FFF" d="M 3.253906 0 L 1159.246094 0 L 1159.246094 171.535156 L 3.253906 171.535156 Z M 3.253906 0"/><path fill="#FFF" d="M 3.253906 0 L 1159.246094 0 L 1159.246094 164.078125 L 3.253906 164.078125 Z M 3.253906 0"/><path fill="#FFE4DE" d="M 3.253906 0 L 1159.246094 0 L 1159.246094 164.078125 L 3.253906 164.078125 Z M 3.253906 0"/></g><g><g><g><path d="M 7.171875 -24.234375 C 7.171875 -22.929688 7.679688 -21.722656 8.703125 -20.609375 C 9.722656 -19.503906 10.960938 -18.53125 12.421875 -17.6875 C 13.890625 -16.851562 15.34375 -16 16.78125 -15.125 C 18.226562 -14.257812 19.460938 -13.191406 20.484375 -11.921875 C 21.503906 -10.648438 22.015625 -9.242188 22.015625 -7.703125 C 22.015625 -5.285156 21.117188 -3.304688 19.328125 -1.765625 C 17.546875 -0.234375 15.132812 0.53125 12.09375 0.53125 C 9.050781 0.53125 6.039062 -0.046875 3.0625 -1.203125 L 3.0625 -3.28125 C 6.070312 -1.769531 8.628906 -1.015625 10.734375 -1.015625 C 12.847656 -1.015625 14.492188 -1.53125 15.671875 -2.5625 C 16.859375 -3.601562 17.453125 -5.035156 17.453125 -6.859375 C 17.453125 -8.097656 16.960938 -9.226562 15.984375 -10.25 C 15.015625 -11.269531 13.832031 -12.15625 12.4375 -12.90625 C 11.050781 -13.664062 9.664062 -14.441406 8.28125 -15.234375 C 6.894531 -16.035156 5.710938 -17.046875 4.734375 -18.265625 C 3.765625 -19.492188 3.28125 -20.976562 3.28125 -22.71875 C 3.28125 -24.46875 4.050781 -26.09375 5.59375 -27.59375 C 7.144531 -29.101562 9.457031 -29.859375 12.53125 -29.859375 C 14.539062 -29.859375 17.082031 -29.398438 20.15625 -28.484375 L 19.71875 -25.46875 C 15.726562 -27.1875 12.316406 -28.046875 9.484375 -28.046875 C 7.941406 -27.304688 7.171875 -26.035156 7.171875 -24.234375 Z M 7.171875 -24.234375" transform="translate(251.17 87.538)"/></g></g></g><g><g><g><path d="M 3.984375 0 L 3.984375 -29.328125 L 21.75 -29.328125 L 21.3125 -26.359375 L 13.0625 -27.734375 C 11.613281 -27.734375 10.019531 -27.484375 8.28125 -26.984375 L 8.28125 -16.21875 L 18.125 -16.21875 L 18.125 -14.53125 L 8.28125 -14.53125 L 8.28125 -1.59375 L 22.015625 -2.96875 L 21.578125 0 Z M 3.984375 0" transform="translate(276.677 87.538)"/></g></g></g><g><g><g><path d="M 26.265625 0.484375 L 25.515625 0.484375 L 6.109375 -23.78125 L 5.9375 -23.78125 L 5.9375 0 L 3.984375 0 L 3.984375 -29.328125 L 7.265625 -29.328125 L 24.140625 -8.015625 L 24.3125 -8.015625 L 24.3125 -29.328125 L 26.265625 -29.328125 Z M 26.265625 0.484375" transform="translate(302.45 87.538)"/></g></g></g><g><g><g><path d="M 14 0 L 9.703125 0 L 9.703125 -27.203125 C 8.691406 -27.429688 7.6875 -27.546875 6.6875 -27.546875 L 0.703125 -26.171875 L 0.4375 -29.328125 L 23.25 -29.328125 L 23.03125 -26.171875 L 17.015625 -27.546875 C 16.003906 -27.546875 15 -27.429688 14 -27.203125 Z M 14 0" transform="translate(333.58 87.538)"/></g></g></g><g><g><g><path d="M 8.0625 -29.328125 L 8.0625 0 L 3.984375 0 L 3.984375 -29.328125 Z M 8.0625 -29.328125" transform="translate(358.157 87.538)"/></g></g></g><g><g><g><path d="M 19.625 -6.953125 L 29.40625 -29.328125 L 33.9375 -29.328125 L 35.578125 0 L 31.046875 0 L 29.859375 -25.203125 L 29.671875 -25.203125 L 18.515625 0 L 17.890625 0 L 6.953125 -24.1875 L 6.78125 -24.1875 L 5.578125 0 L 3.625 0 L 5.265625 -29.328125 L 9.390625 -29.328125 Z M 19.625 -6.953125" transform="translate(371.088 87.538)"/></g></g></g><g><g><g><path d="M 3.984375 0 L 3.984375 -29.328125 L 21.75 -29.328125 L 21.3125 -26.359375 L 13.0625 -27.734375 C 11.613281 -27.734375 10.019531 -27.484375 8.28125 -26.984375 L 8.28125 -16.21875 L 18.125 -16.21875 L 18.125 -14.53125 L 8.28125 -14.53125 L 8.28125 -1.59375 L 22.015625 -2.96875 L 21.578125 0 Z M 3.984375 0" transform="translate(411.34 87.538)"/></g></g></g><g><g><g><path d="M 26.265625 0.484375 L 25.515625 0.484375 L 6.109375 -23.78125 L 5.9375 -23.78125 L 5.9375 0 L 3.984375 0 L 3.984375 -29.328125 L 7.265625 -29.328125 L 24.140625 -8.015625 L 24.3125 -8.015625 L 24.3125 -29.328125 L 26.265625 -29.328125 Z M 26.265625 0.484375" transform="translate(437.113 87.538)"/></g></g></g><g><g><g><path d="M 14 0 L 9.703125 0 L 9.703125 -27.203125 C 8.691406 -27.429688 7.6875 -27.546875 6.6875 -27.546875 L 0.703125 -26.171875 L 0.4375 -29.328125 L 23.25 -29.328125 L 23.03125 -26.171875 L 17.015625 -27.546875 C 16.003906 -27.546875 15 -27.429688 14 -27.203125 Z M 14 0" transform="translate(468.244 87.538)"/></g></g></g><g><g><g><path d="M 0.4375 0 L 13.59375 -30.03125 L 14.265625 -30.03125 L 27.421875 0 L 22.59375 0 L 19.265625 -7.96875 L 6.109375 -7.96875 L 2.828125 0 Z M 6.78125 -9.65625 L 18.5625 -9.65625 L 12.71875 -24.015625 Z M 6.78125 -9.65625" transform="translate(504.777 87.538)"/></g></g></g><g><g><g><path d="M 26.265625 0.484375 L 25.515625 0.484375 L 6.109375 -23.78125 L 5.9375 -23.78125 L 5.9375 0 L 3.984375 0 L 3.984375 -29.328125 L 7.265625 -29.328125 L 24.140625 -8.015625 L 24.3125 -8.015625 L 24.3125 -29.328125 L 26.265625 -29.328125 Z M 26.265625 0.484375" transform="translate(533.517 87.538)"/></g></g></g><g><g><g><path d="M 0.4375 0 L 13.59375 -30.03125 L 14.265625 -30.03125 L 27.421875 0 L 22.59375 0 L 19.265625 -7.96875 L 6.109375 -7.96875 L 2.828125 0 Z M 6.78125 -9.65625 L 18.5625 -9.65625 L 12.71875 -24.015625 Z M 6.78125 -9.65625" transform="translate(564.647 87.538)"/></g></g></g><g><g><g><path d="M 3.984375 0 L 3.984375 -29.328125 L 8.328125 -29.328125 L 8.328125 -2.390625 C 10.128906 -1.859375 11.578125 -1.59375 12.671875 -1.59375 L 20.6875 -2.96875 L 20.15625 0 Z M 3.984375 0" transform="translate(593.387 87.538)"/></g></g></g><g><g><g><path d="M 15.1875 0 L 10.890625 0 L 10.890625 -10.890625 L 0.890625 -29.328125 L 5.71875 -29.328125 L 13.90625 -12.484375 L 21.578125 -29.328125 L 23.78125 -29.328125 L 15.1875 -11.125 Z M 15.1875 0" transform="translate(615.838 87.538)"/></g></g></g><g><g><g><path d="M 7.171875 -24.234375 C 7.171875 -22.929688 7.679688 -21.722656 8.703125 -20.609375 C 9.722656 -19.503906 10.960938 -18.53125 12.421875 -17.6875 C 13.890625 -16.851562 15.34375 -16 16.78125 -15.125 C 18.226562 -14.257812 19.460938 -13.191406 20.484375 -11.921875 C 21.503906 -10.648438 22.015625 -9.242188 22.015625 -7.703125 C 22.015625 -5.285156 21.117188 -3.304688 19.328125 -1.765625 C 17.546875 -0.234375 15.132812 0.53125 12.09375 0.53125 C 9.050781 0.53125 6.039062 -0.046875 3.0625 -1.203125 L 3.0625 -3.28125 C 6.070312 -1.769531 8.628906 -1.015625 10.734375 -1.015625 C 12.847656 -1.015625 14.492188 -1.53125 15.671875 -2.5625 C 16.859375 -3.601562 17.453125 -5.035156 17.453125 -6.859375 C 17.453125 -8.097656 16.960938 -9.226562 15.984375 -10.25 C 15.015625 -11.269531 13.832031 -12.15625 12.4375 -12.90625 C 11.050781 -13.664062 9.664062 -14.441406 8.28125 -15.234375 C 6.894531 -16.035156 5.710938 -17.046875 4.734375 -18.265625 C 3.765625 -19.492188 3.28125 -20.976562 3.28125 -22.71875 C 3.28125 -24.46875 4.050781 -26.09375 5.59375 -27.59375 C 7.144531 -29.101562 9.457031 -29.859375 12.53125 -29.859375 C 14.539062 -29.859375 17.082031 -29.398438 20.15625 -28.484375 L 19.71875 -25.46875 C 15.726562 -27.1875 12.316406 -28.046875 9.484375 -28.046875 C 7.941406 -27.304688 7.171875 -26.035156 7.171875 -24.234375 Z M 7.171875 -24.234375" transform="translate(641.39 87.538)"/></g></g></g><g><g><g><path d="M 8.0625 -29.328125 L 8.0625 0 L 3.984375 0 L 3.984375 -29.328125 Z M 8.0625 -29.328125" transform="translate(666.896 87.538)"/></g></g></g><g><g><g><path d="M 7.171875 -24.234375 C 7.171875 -22.929688 7.679688 -21.722656 8.703125 -20.609375 C 9.722656 -19.503906 10.960938 -18.53125 12.421875 -17.6875 C 13.890625 -16.851562 15.34375 -16 16.78125 -15.125 C 18.226562 -14.257812 19.460938 -13.191406 20.484375 -11.921875 C 21.503906 -10.648438 22.015625 -9.242188 22.015625 -7.703125 C 22.015625 -5.285156 21.117188 -3.304688 19.328125 -1.765625 C 17.546875 -0.234375 15.132812 0.53125 12.09375 0.53125 C 9.050781 0.53125 6.039062 -0.046875 3.0625 -1.203125 L 3.0625 -3.28125 C 6.070312 -1.769531 8.628906 -1.015625 10.734375 -1.015625 C 12.847656 -1.015625 14.492188 -1.53125 15.671875 -2.5625 C 16.859375 -3.601562 17.453125 -5.035156 17.453125 -6.859375 C 17.453125 -8.097656 16.960938 -9.226562 15.984375 -10.25 C 15.015625 -11.269531 13.832031 -12.15625 12.4375 -12.90625 C 11.050781 -13.664062 9.664062 -14.441406 8.28125 -15.234375 C 6.894531 -16.035156 5.710938 -17.046875 4.734375 -18.265625 C 3.765625 -19.492188 3.28125 -20.976562 3.28125 -22.71875 C 3.28125 -24.46875 4.050781 -26.09375 5.59375 -27.59375 C 7.144531 -29.101562 9.457031 -29.859375 12.53125 -29.859375 C 14.539062 -29.859375 17.082031 -29.398438 20.15625 -28.484375 L 19.71875 -25.46875 C 15.726562 -27.1875 12.316406 -28.046875 9.484375 -28.046875 C 7.941406 -27.304688 7.171875 -26.035156 7.171875 -24.234375 Z M 7.171875 -24.234375" transform="translate(679.827 87.538)"/></g></g></g><g><g><g><path d="M 8.28125 -16.21875 L 17.671875 -16.21875 L 17.671875 -14.53125 L 8.28125 -14.53125 L 8.28125 0 L 3.984375 0 L 3.984375 -29.328125 L 21.3125 -29.328125 L 21.3125 -26.359375 L 13.109375 -27.734375 C 11.628906 -27.734375 10.019531 -27.484375 8.28125 -26.984375 Z M 8.28125 -16.21875" transform="translate(717.29 87.538)"/></g></g></g><g><g><g><path d="M 3.984375 0 L 3.984375 -29.328125 L 21.75 -29.328125 L 21.3125 -26.359375 L 13.0625 -27.734375 C 11.613281 -27.734375 10.019531 -27.484375 8.28125 -26.984375 L 8.28125 -16.21875 L 18.125 -16.21875 L 18.125 -14.53125 L 8.28125 -14.53125 L 8.28125 -1.59375 L 22.015625 -2.96875 L 21.578125 0 Z M 3.984375 0" transform="translate(739.476 87.538)"/></g></g></g><g><g><g><path d="M 0.4375 0 L 13.59375 -30.03125 L 14.265625 -30.03125 L 27.421875 0 L 22.59375 0 L 19.265625 -7.96875 L 6.109375 -7.96875 L 2.828125 0 Z M 6.78125 -9.65625 L 18.5625 -9.65625 L 12.71875 -24.015625 Z M 6.78125 -9.65625" transform="translate(765.248 87.538)"/></g></g></g><g><g><g><path d="M 14 0 L 9.703125 0 L 9.703125 -27.203125 C 8.691406 -27.429688 7.6875 -27.546875 6.6875 -27.546875 L 0.703125 -26.171875 L 0.4375 -29.328125 L 23.25 -29.328125 L 23.03125 -26.171875 L 17.015625 -27.546875 C 16.003906 -27.546875 15 -27.429688 14 -27.203125 Z M 14 0" transform="translate(793.988 87.538)"/></g></g></g><g><g><g><path d="M 25.78125 -29.328125 L 25.78125 -11.34375 C 25.78125 -8.59375 25.484375 -6.523438 24.890625 -5.140625 C 24.628906 -4.515625 24.207031 -3.8125 23.625 -3.03125 C 23.050781 -2.25 22.378906 -1.625 21.609375 -1.15625 C 19.660156 -0.03125 17.226562 0.53125 14.3125 0.53125 C 6.988281 0.53125 3.328125 -3.234375 3.328125 -10.765625 L 3.328125 -29.328125 L 7.84375 -29.328125 L 7.84375 -10.40625 C 7.84375 -9.550781 7.851562 -8.859375 7.875 -8.328125 C 7.90625 -7.796875 8.0625 -7.039062 8.34375 -6.0625 C 8.625 -5.09375 9.007812 -4.3125 9.5 -3.71875 C 9.988281 -3.125 10.753906 -2.59375 11.796875 -2.125 C 12.847656 -1.65625 14.097656 -1.421875 15.546875 -1.421875 C 21.066406 -1.421875 23.828125 -4.375 23.828125 -10.28125 L 23.828125 -29.328125 Z M 25.78125 -29.328125" transform="translate(818.565 87.538)"/></g></g></g><g><g><g><path d="M 8.328125 -14 L 8.328125 0 L 3.984375 0 L 3.984375 -29.328125 L 13.5625 -29.328125 C 16.539062 -29.328125 18.984375 -28.660156 20.890625 -27.328125 C 22.796875 -26.003906 23.75 -24.253906 23.75 -22.078125 C 23.75 -19.910156 22.988281 -18.195312 21.46875 -16.9375 C 19.945312 -15.6875 17.882812 -14.828125 15.28125 -14.359375 L 27.15625 0 L 22.015625 0.625 L 11.734375 -14 Z M 8.328125 -15.328125 L 11.15625 -15.328125 C 16.476562 -15.328125 19.140625 -17.421875 19.140625 -21.609375 C 19.140625 -22.328125 18.960938 -23.128906 18.609375 -24.015625 C 17.921875 -25.867188 16.472656 -27.09375 14.265625 -27.6875 C 12.253906 -27.6875 10.273438 -27.4375 8.328125 -26.9375 Z M 8.328125 -15.328125" transform="translate(848.544 87.538)"/></g></g></g><g><g><g><path d="M 3.984375 0 L 3.984375 -29.328125 L 21.75 -29.328125 L 21.3125 -26.359375 L 13.0625 -27.734375 C 11.613281 -27.734375 10.019531 -27.484375 8.28125 -26.984375 L 8.28125 -16.21875 L 18.125 -16.21875 L 18.125 -14.53125 L 8.28125 -14.53125 L 8.28125 -1.59375 L 22.015625 -2.96875 L 21.578125 0 Z M 3.984375 0" transform="translate(877.682 87.538)"/></g></g></g><g><g><g><path d="M 7.171875 -24.234375 C 7.171875 -22.929688 7.679688 -21.722656 8.703125 -20.609375 C 9.722656 -19.503906 10.960938 -18.53125 12.421875 -17.6875 C 13.890625 -16.851562 15.34375 -16 16.78125 -15.125 C 18.226562 -14.257812 19.460938 -13.191406 20.484375 -11.921875 C 21.503906 -10.648438 22.015625 -9.242188 22.015625 -7.703125 C 22.015625 -5.285156 21.117188 -3.304688 19.328125 -1.765625 C 17.546875 -0.234375 15.132812 0.53125 12.09375 0.53125 C 9.050781 0.53125 6.039062 -0.046875 3.0625 -1.203125 L 3.0625 -3.28125 C 6.070312 -1.769531 8.628906 -1.015625 10.734375 -1.015625 C 12.847656 -1.015625 14.492188 -1.53125 15.671875 -2.5625 C 16.859375 -3.601562 17.453125 -5.035156 17.453125 -6.859375 C 17.453125 -8.097656 16.960938 -9.226562 15.984375 -10.25 C 15.015625 -11.269531 13.832031 -12.15625 12.4375 -12.90625 C 11.050781 -13.664062 9.664062 -14.441406 8.28125 -15.234375 C 6.894531 -16.035156 5.710938 -17.046875 4.734375 -18.265625 C 3.765625 -19.492188 3.28125 -20.976562 3.28125 -22.71875 C 3.28125 -24.46875 4.050781 -26.09375 5.59375 -27.59375 C 7.144531 -29.101562 9.457031 -29.859375 12.53125 -29.859375 C 14.539062 -29.859375 17.082031 -29.398438 20.15625 -28.484375 L 19.71875 -25.46875 C 15.726562 -27.1875 12.316406 -28.046875 9.484375 -28.046875 C 7.941406 -27.304688 7.171875 -26.035156 7.171875 -24.234375 Z M 7.171875 -24.234375" transform="translate(903.455 87.538)"/></g></g></g></svg>